<?xml version="1.0" standalone="no"?>
<!DOCTYPE svg PUBLIC "-//W3C//DTD SVG 20010904//EN"
 "http://www.w3.org/TR/2001/REC-SVG-20010904/DTD/svg10.dtd">
<svg version="1.0" xmlns="http://www.w3.org/2000/svg"
 width="512.000000pt" height="512.000000pt" viewBox="0 0 512.000000 512.000000"
 preserveAspectRatio="xMidYMid meet">
<metadata>
Created by potrace 1.11, written by Peter Selinger 2001-2013
</metadata>
<g transform="translate(0.000000,512.000000) scale(0.100000,-0.100000)"
fill="#000000" stroke="none">
<path d="M0 2560 l0 -2560 2560 0 2560 0 0 2560 0 2560 -2560 0 -2560 0 0
-2560z m3415 -15 l0 -1000 -145 0 -145 0 -3 990 c-1 545 0 996 3 1003 3 10 39
12 147 10 l143 -3 0 -1000z m-1340 308 l485 -258 0 -125 0 -125 -484 -258
c-267 -141 -487 -257 -491 -257 -3 0 -4 72 -3 161 l3 161 330 152 c182 84 330
159 330 165 0 7 -148 81 -330 165 l-330 153 -3 161 c-1 89 0 162 3 162 3 0
224 -116 490 -257z"/>
</g>
</svg>
