<?xml version="1.0" encoding="utf-8"?>
<!-- Generator: Adobe Illustrator 17.1.0, SVG Export Plug-In . SVG Version: 6.00 Build 0)  -->
<!DOCTYPE svg PUBLIC "-//W3C//DTD SVG 1.1//EN" "http://www.w3.org/Graphics/SVG/1.1/DTD/svg11.dtd">
<svg version="1.1" id="Layer_1" xmlns="http://www.w3.org/2000/svg" xmlns:xlink="http://www.w3.org/1999/xlink" x="0px" y="0px"
	 viewBox="0 0 512 512" enable-background="new 0 0 512 512" xml:space="preserve">
<path id="twitter-icon" d="M507,104.5c-18.3,8.1-38,13.6-58.7,16.1c21.1-12.7,37.3-32.7,45-56.6c-19.8,11.7-41.6,20.2-64.9,24.8
	c-18.7-19.9-45.2-32.3-74.6-32.3c-66,0-114.5,61.6-99.6,125.5c-85-4.3-160.3-45-210.7-106.8C16.5,121.3,29.4,181.4,75,211.8
	c-16.8-0.5-32.5-5.1-46.3-12.8c-1.1,47.4,32.8,91.7,82,101.5c-14.4,3.9-30.2,4.8-46.2,1.8c13,40.6,50.8,70.2,95.5,71
	C117,407,62.9,422.1,8.6,415.7c45.2,29,99,45.9,156.7,45.9c189.8,0,297.1-160.3,290.6-304.1C476,143,493.3,125,507,104.5z"/>
</svg>
