<?xml version="1.0" encoding="utf-8"?>


<!-- The icon can be used freely in both personal and commercial projects with no attribution required, but always appreciated. 
You may NOT sub-license, resell, rent, redistribute or otherwise transfer the icon without express written permission from iconmonstr.com -->


<!DOCTYPE svg PUBLIC "-//W3C//DTD SVG 1.1//EN" "http://www.w3.org/Graphics/SVG/1.1/DTD/svg11.dtd">

<svg version="1.1" xmlns="http://www.w3.org/2000/svg" xmlns:xlink="http://www.w3.org/1999/xlink" x="0px" y="0px"

	 width="512px" height="512px" viewBox="0 0 512 512" enable-background="new 0 0 512 512" xml:space="preserve">

<path id="speech-bubble-15-icon" d="M174.059,354.374c-0.031-0.008-0.062-0.014-0.093-0.021

	c-25.892,15.965-82.983,32.107-123.141,39.412c14.984-29.725,31.616-70.527,30.764-98.977C61.403,270.511,50,239.224,50,207.358

	c0-89.84,87.383-155.527,185.209-155.527c97.22,0,185.211,65.193,185.211,155.527c0,1.283-0.027,2.564-0.066,3.844

	c-11.285-6.088-23.506-11.037-36.622-14.68c-6.854-60.861-70.842-108.715-148.522-108.715c-82.237,0-149.141,53.631-149.141,119.551

	c0,34.688,15.009,56.529,36.192,78.068c-4.306,31.98-14.646,59.781-14.646,59.781s30.542-8.064,65.253-28.275

	C171.395,329.616,171.806,342.101,174.059,354.374z M461.432,460.169c-27.634-5.029-66.922-16.137-84.739-27.123

	c-98.102,24.029-169.6-36.424-169.6-101.154c0-62.166,60.552-107.029,127.453-107.029c67.322,0,127.454,45.203,127.454,107.029

	c0,21.928-7.85,43.457-21.738,60.164C439.674,411.634,451.121,439.712,461.432,460.169z M302.524,333.198

	c0-9.648-7.841-17.469-17.515-17.469c-9.673,0-17.515,7.82-17.515,17.469s7.842,17.471,17.515,17.471

	C294.684,350.669,302.524,342.847,302.524,333.198z M354.75,333.198c0-9.648-7.841-17.469-17.515-17.469

	c-9.673,0-17.515,7.82-17.515,17.469s7.842,17.471,17.515,17.471C346.909,350.669,354.75,342.847,354.75,333.198z M406.339,333.198

	c0-9.648-7.842-17.469-17.515-17.469c-9.674,0-17.515,7.82-17.515,17.469s7.841,17.471,17.515,17.471

	C398.497,350.669,406.339,342.847,406.339,333.198z"/>

</svg>

