<?xml version="1.0" encoding="utf-8"?>
<!-- Generator: Adobe Illustrator 17.1.0, SVG Export Plug-In . SVG Version: 6.00 Build 0)  -->
<!DOCTYPE svg PUBLIC "-//W3C//DTD SVG 1.1//EN" "http://www.w3.org/Graphics/SVG/1.1/DTD/svg11.dtd">
<svg version="1.1" id="Layer_1" xmlns="http://www.w3.org/2000/svg" xmlns:xlink="http://www.w3.org/1999/xlink" x="0px" y="0px"
	 viewBox="0 0 512 512" enable-background="new 0 0 512 512" xml:space="preserve">
<path id="github-2-icon" d="M509.6,250.7l0.4-4.7c-28.1-2.7-56-3-83.1-0.9c4.4-13.9,6.7-29.6,6.5-47.5c-0.4-38-13-67.5-32.9-92
	c3.8-23.1,0.9-46.2-6.3-69.3c-28.4,2.3-54,11.6-76.8,27.8c-42.6-8.6-85.1-9.2-127.7,0c-26.6-17.9-52.7-26.7-78.3-27.8
	c-7.6,25.5-8.8,50.5-2.3,75.2c-22.4,23.8-31,52.6-30.6,84.6c0.2,18.3,3.1,34.6,8.3,49c-26.7-2-54.2-1.7-81.8,1l0.4,4.7
	c28.1-2.7,56.1-3,83.3-0.8c1,2.4,2,4.8,3.1,7.1c-29.4-0.8-55.9,1.8-80.7,7.9l1.1,4.6c25.2-6.2,52.1-8.7,82.3-7.7
	c19.9,35.4,58.2,56.2,114.1,62.8c-13,10.5-19.9,23-21.7,37c0,0-5.9,0-29.6,0c-39.7,0-50.5-50.6-91.7-45.6c39.9,19.8,31.9,83,95.8,83
	c21.5,0,26,0,26.8,0v58c0.3,9.4-3.8,15.6-10.4,20c22.9,2.3,40-9.1,40-23.1c0-14,0-69.8,0-76.6c0-6.8,7.1-7.4,7.1-7.4v89.5
	c0.3,8.9-4,14-8.6,18.8c20.1,0.8,39.1-3.2,39.9-20.4c0,0,0-81.3,0-85.6s7.1-4.4,7.1,0c0,4.4,0,81.6,0,81.6
	c0.2,14.5,12.7,26.2,39.2,24.4c-7.1-5.7-9.3-11.5-9.3-19.8c0-8.3,0-88.5,0-88.5s7.3-0.4,7.3,7.4c0,7.7,0,61.7,0,74.6
	c0,16.6,19.9,23.5,42.7,22.8c-7.5-5.6-12.5-12.2-12.5-21.2v-89.7c-0.8-13.2-6.1-25.6-16.6-37.2c51-7.8,87.8-28.2,106.1-64.7
	c30.2-1,57.3,1.5,82.5,7.7l1.1-4.6c-25-6.1-51.7-8.7-81.4-7.9c1-2.3,2-4.6,2.9-7.1C452.8,247.8,481.1,248,509.6,250.7z M83.4,323.5
	c-1.3,0-2.3-0.7-2.3-1.6c0-0.9,1-1.6,2.3-1.6c1.3,0,2.3,0.7,2.3,1.6C85.7,322.8,84.7,323.5,83.4,323.5z M90.6,328.4
	c-1.4,0-2.5-0.8-2.5-1.8s1.1-1.8,2.5-1.8c1.4,0,2.5,0.8,2.5,1.8S92,328.4,90.6,328.4z M97.8,334.7c-1.6,0-3-0.9-3-2.1
	c0-1.2,1.3-2.1,3-2.1s3,0.9,3,2.1S99.5,334.7,97.8,334.7z M104.9,342.4c-1.9,0-3.5-1.1-3.5-2.5s1.6-2.5,3.5-2.5s3.5,1.1,3.5,2.5
	S106.8,342.4,104.9,342.4z M112.7,351c-2.1,0-3.8-1.2-3.8-2.7s1.7-2.7,3.8-2.7c2.1,0,3.8,1.2,3.8,2.7S114.8,351,112.7,351z
	 M121.6,359.7c-2.4,0-4.3-1.4-4.3-3s1.9-3,4.3-3c2.4,0,4.3,1.4,4.3,3S124,359.7,121.6,359.7z M133.8,368c-2.6,0-4.7-1.5-4.7-3.4
	c0-1.9,2.1-3.4,4.7-3.4c2.6,0,4.7,1.5,4.7,3.4C138.6,366.5,136.4,368,133.8,368z M148.9,372.4c-2.6,0-4.7-1.5-4.7-3.4
	c0-1.9,2.1-3.4,4.7-3.4s4.7,1.5,4.7,3.4C153.6,370.9,151.5,372.4,148.9,372.4z M164.8,372.9c-2.6,0-4.7-1.5-4.7-3.4
	c0-1.9,2.1-3.4,4.7-3.4c2.6,0,4.7,1.5,4.7,3.4C169.5,371.4,167.4,372.9,164.8,372.9z M180.4,373.2c-2.6,0-4.7-1.5-4.7-3.4
	c0-1.9,2.1-3.4,4.7-3.4s4.7,1.5,4.7,3.4C185.2,371.7,183.1,373.2,180.4,373.2z"/>
</svg>
