<?xml version="1.0" encoding="utf-8"?>

<!-- License Agreement at http://iconmonstr.com/license/ -->

<!DOCTYPE svg PUBLIC "-//W3C//DTD SVG 1.1//EN" "http://www.w3.org/Graphics/SVG/1.1/DTD/svg11.dtd">
<svg version="1.1" xmlns="http://www.w3.org/2000/svg" xmlns:xlink="http://www.w3.org/1999/xlink" x="0px" y="0px"
	 width="512px" height="512px" viewBox="0 0 512 512" style="enable-background:new 0 0 512 512;" xml:space="preserve">
<path id="script-6-icon" d="M413.052,268.151c-20.762-25.43-77.981-95.685-77.981-95.685l-25.987,15.615
	c0,0,77.684,95.343,77.917,95.615c11.663,13.563,8.729,32.803-7.134,42.976c-15.369,9.856-115.14,72.74-115.14,72.74
	c-0.438-13.23-5.188-26.244-14.176-36.916c0,0-99.916-127.22-124.495-158.655c-20.479-26.193,0.506-51.948,21.865-51.948
	c31.506,0,42.475,42.444,14.339,57.478l18.603,23.969l140.832-79.578c24.044-17.748,30.139-50.384,15.524-75.312
	c-15.021-25.618-46.585-35.219-72.929-23.509l-0.022-0.044l-142.465,72.917c-36.097,17.297-45.581,61.528-19.339,94.523
	C127.646,254,228.636,383.154,228.636,383.154c15.082,20.057,0.686,48.828-24.396,48.828c-31.545,0-42.459-42.504-14.3-57.496
	l-18.57-23.845c-32.373,20.988-37.059,66.485-10.214,93.331c18.569,18.568,48.706,24.584,74.02,9.498l0.018,0.027
	c0,0,163.204-102.915,163.208-102.932s-27.913,18.253-0.023-0.035S432.851,292.401,413.052,268.151z M301.217,131.353l-92.796,52.56
	c0.517-21.803-10.502-41.316-27.891-52.463l95.519-48.89c12.257-5.71,28.444-2.021,35.745,11.954
	C318.09,106.565,315.739,123.03,301.217,131.353z M227.685,292.238l18.15-45.756l13.527,17.786l-8.252,24.396l30.485,4.84
	l13.501,17.752l-58.21-6.918L227.685,292.238z M323.025,241.78l9.201,12.103l-18.153,45.752l-13.498-17.75l8.17-24.501
	l-30.405-4.732l-13.526-17.786L323.025,241.78z"/>
</svg>
