<?xml version="1.0" encoding="utf-8"?>

<!-- License Agreement at http://iconmonstr.com/license/ -->

<!DOCTYPE svg PUBLIC "-//W3C//DTD SVG 1.1//EN" "http://www.w3.org/Graphics/SVG/1.1/DTD/svg11.dtd">
<svg version="1.1" xmlns="http://www.w3.org/2000/svg" xmlns:xlink="http://www.w3.org/1999/xlink" x="0px" y="0px"
	 width="512px" height="512px" viewBox="0 0 512 512" style="enable-background:new 0 0 512 512;" xml:space="preserve">
<path id="script-icon" d="M397.109,347.073c-2.805,1.84,10.13-6.323-141.555,89.326c0.32-14.629-4.745-30.091-14.847-43.108
	c-5.77-7.436-114.969-146.443-136.005-172.893c-47.882-60.206,26.854-103.215,57.756-57.57
	c13.717,20.257,9.062,52.225-10.853,65.221l18.592,23.238L326.5,161.891c20.832,25.372,69.183,84.269,85.109,103.778
	C431.174,289.632,424.669,329.001,397.109,347.073z M199.74,200.215l143.584-82.098c9.042-45.017-36.599-81.852-78.713-63.131
	l-0.021-0.043l-120.207,61.525C181.732,125.69,204.659,162.243,199.74,200.215z M181.389,366.072
	c-39.51,18.217-43.959,56.77-23.56,80.451c29.979,34.804,90.999,5.584,59.46-35.059
	C205.399,396.144,191.069,378.267,181.389,366.072z"/>
</svg>
