<?xml version="1.0" encoding="utf-8"?>
<!-- Generator: Adobe Illustrator 17.1.0, SVG Export Plug-In . SVG Version: 6.00 Build 0)  -->
<!DOCTYPE svg PUBLIC "-//W3C//DTD SVG 1.1//EN" "http://www.w3.org/Graphics/SVG/1.1/DTD/svg11.dtd">
<svg version="1.1" id="Layer_1" xmlns="http://www.w3.org/2000/svg" xmlns:xlink="http://www.w3.org/1999/xlink" x="0px" y="0px"
	 viewBox="0 0 500 500" enable-background="new 0 0 500 500" xml:space="preserve">
<g id="Capa_23">
	<g>
		<path d="M163.8,30.3l-30.6,42.2L80.5,88.3l-11.6,15.8l-9-2.1C27.6,143.6,8.1,195.6,8.1,252.2c0,20.8,2.9,40.9,7.8,60.2l49.8,40.6
			l-14.9,37.2C94.9,454.8,169,497.1,253,497.1c126,0,229.7-95.3,243.3-217.7L476,240.2l-32.7,27.4l-6.3,33.8l-29.6-59.1l-38-9.5
			l-7.4,22.1l-42.2,26.4l26.3,7.4l-40.1,61.2l-2.1,44.3L271.4,448l-34.8,8.4c0,0-23.2-64.3-22.1-67.5c1-3.2-4.2-72.8-7.4-74.9
			c-3.2-2.1-62.2-7.4-62.2-7.4l-24.3-65.4l41.1-50.6l-11.6-25.3l20.1-15.8l38-32.7l-7.4-16.9l41.2-38l35.9,8.4l108.4-23.5
			C347.8,21.9,302.1,7.3,253,7.3c-36.9,0-71.7,8.4-103.1,23H163.8z M252.4,34.5l-23.2,15.8l-9.5-15.8
			C219.7,34.5,252.4,34.5,252.4,34.5z M129,88.3l16.9-9.5l4.2,11.6L129,88.3z M175.1,100.6l12.3,27l-15.9,9l-14-5.8l5.5-12.5
			l2.2-14.9L175.1,100.6z"/>
		<polygon points="170.1,188.5 203.9,185.7 209.7,197 244.5,201.6 283.7,208.1 291.8,186.3 250.2,183.9 231.9,163.2 236.2,178 
			224.3,187.8 224.3,180.8 199.2,163 		"/>
		<polygon points="249.2,82.4 231.7,93 228.2,107 214.9,121 253.4,111.9 		"/>
		<polygon points="307.1,162.4 274.6,146.7 266.6,167.9 301.6,170.8 		"/>
	</g>
</g>
</svg>
