<?xml version="1.0" encoding="utf-8"?>
<!-- Generator: Adobe Illustrator 16.0.4, SVG Export Plug-In . SVG Version: 6.00 Build 0)  -->
<!DOCTYPE svg PUBLIC "-//W3C//DTD SVG 1.1//EN" "http://www.w3.org/Graphics/SVG/1.1/DTD/svg11.dtd">
<svg version="1.1" id="Layer_1" xmlns="http://www.w3.org/2000/svg" xmlns:xlink="http://www.w3.org/1999/xlink" x="0px" y="0px"
	 width="512px" height="512px" viewBox="0 0 512 512" enable-background="new 0 0 512 512" xml:space="preserve">
<path d="M435.099,242.134c10.233,0,18.776,3.344,25.627,10.029c6.85,6.685,10.274,15.062,10.274,25.13
	c0,16.012-7.676,26.74-23.026,32.188l-42.587,14.608l13.865,41.349c1.155,3.467,1.734,7.345,1.734,11.637
	c0,9.739-3.467,18.157-10.399,25.256c-6.933,7.097-15.269,10.646-25.007,10.646c-7.759,0-14.815-2.228-21.17-6.686
	c-6.354-4.455-10.771-10.397-13.247-17.826l-13.618-40.853l-76.755,26.244l13.618,40.606c1.32,3.962,1.98,7.84,1.98,11.637
	c0,9.738-3.465,18.157-10.397,25.254C259.058,458.451,250.639,462,240.736,462c-7.759,0-14.773-2.228-21.046-6.686
	c-6.272-4.457-10.646-10.399-13.123-17.826l-13.618-40.358l-37.882,13.122c-4.786,1.486-8.913,2.229-12.379,2.229
	c-10.069,0-18.446-3.301-25.131-9.904c-6.686-6.602-10.028-14.938-10.028-25.007c0-7.758,2.27-14.772,6.809-21.045
	c4.539-6.273,10.44-10.647,17.703-13.123l38.625-13.122l-25.998-77.498l-38.625,13.37c-4.291,1.32-8.253,1.98-11.884,1.98
	c-9.904,0-18.24-3.342-25.007-10.027C62.384,251.42,59,243.125,59,233.221c0-7.758,2.27-14.772,6.809-21.045
	c4.54-6.272,10.441-10.646,17.703-13.122l38.873-13.123l-13.123-39.368c-1.32-3.962-1.98-7.84-1.98-11.637
	c0-9.904,3.466-18.364,10.399-25.379c6.933-7.015,15.351-10.522,25.255-10.522c7.758,0,14.773,2.228,21.045,6.685
	c6.272,4.457,10.647,10.399,13.123,17.827l13.37,39.616l76.754-25.998l-13.37-39.616c-1.32-3.961-1.981-7.84-1.981-11.636
	c0-9.739,3.508-18.158,10.522-25.255C269.415,53.549,277.793,50,287.531,50c7.758,0,14.814,2.27,21.17,6.809
	c6.354,4.54,10.77,10.441,13.245,17.703l13.123,39.863l40.111-13.618c3.467-0.99,7.016-1.485,10.646-1.485
	c9.904,0,18.364,3.26,25.379,9.78c7.016,6.521,10.522,14.65,10.522,24.389c0,7.428-2.476,14.154-7.427,20.179
	c-4.952,6.024-11.06,10.275-18.323,12.751l-38.872,13.37l25.997,78.24l40.607-13.864
	C427.67,242.795,431.468,242.134,435.099,242.134z M238.507,307.005l76.755-25.998l-25.998-77.993l-76.754,26.493L238.507,307.005z"
	/>
</svg>
