<?xml version="1.0" encoding="UTF-8"?>
<svg width="48px" height="48px" viewBox="0 0 48 48" version="1.1" xmlns="http://www.w3.org/2000/svg" xmlns:xlink="http://www.w3.org/1999/xlink">
    <!-- Generator: Sketch 53.2 (72643) - https://sketchapp.com -->
    <title>apple-podcast</title>
    <desc>Created with Sketch.</desc>
    <defs>
        <linearGradient x1="50%" y1="0%" x2="50%" y2="100%" id="linearGradient-1">
            <stop stop-color="#F452FF" offset="0%"></stop>
            <stop stop-color="#832BC1" offset="100%"></stop>
        </linearGradient>
    </defs>
    <g id="Page-1" stroke="none" stroke-width="1" fill="none" fill-rule="evenodd">
        <g id="XMLID_632_" transform="translate(1.000000, 1.000000)">
            <path d="M45.0899886,39.8700791 C44.6428435,41.0058658 43.6110829,42.6050709 42.1478985,43.7315344 C41.303149,44.3821484 40.2946048,45.0040615 38.9092961,45.4144657 C37.4325841,45.8521083 35.613658,46 33.3497806,46 L12.6500366,46 C10.386342,46 8.56741591,45.8521083 7.09052108,45.4144657 C5.70521237,45.0040615 4.69685096,44.3821484 3.85191867,43.7315344 C2.38891715,42.6048881 1.35697368,41.0058658 0.909828639,39.8700791 C0.00914033191,37.5816874 0,34.9852641 0,33.3500457 L0,33.3500457 L0,12.6499543 L0,12.6499543 C0,11.0147359 0.00914033191,8.4183126 0.909828639,6.12992092 C1.35697368,4.99413424 2.38873434,3.39492906 3.85191867,2.2684656 C4.69666815,1.61785161 5.70521237,0.995938481 7.09052108,0.585534316 C8.5672331,0.147891746 10.3861592,0 12.6500366,0 L12.6500366,0 L33.3499634,0 L33.3499634,0 C35.613658,0 37.4325841,0.147891746 38.9094789,0.585534316 C40.2947876,0.995938481 41.303149,1.61803442 42.1480813,2.2684656 C43.6110829,3.39511187 44.6430263,4.99413424 45.0901714,6.12992092 C45.9908597,8.4183126 46,11.0147359 46,12.6499543 L46,33.3500457 C45.9998172,34.9850813 45.9906769,37.5815046 45.0899886,39.8700791 Z" id="XMLID_662_" fill="url(#linearGradient-1)"></path>
            <path d="M45.0899886,39.8700791 C44.6428435,41.0058658 43.6110829,42.6050709 42.1478985,43.7315344 C41.303149,44.3821484 40.2946048,45.0040615 38.9092961,45.4144657 C37.4325841,45.8521083 35.613658,46 33.3497806,46 L12.6500366,46 C10.386342,46 8.56741591,45.8521083 7.09052108,45.4144657 C5.70521237,45.0040615 4.69685096,44.3821484 3.85191867,43.7315344 C2.38891715,42.6048881 1.35697368,41.0058658 0.909828639,39.8700791 C0.00914033191,37.5816874 0,34.9852641 0,33.3500457 L0,33.3500457 L0,12.6499543 L0,12.6499543 C0,11.0147359 0.00914033191,8.4183126 0.909828639,6.12992092 C1.35697368,4.99413424 2.38873434,3.39492906 3.85191867,2.2684656 C4.69666815,1.61785161 5.70521237,0.995938481 7.09052108,0.585534316 C8.5672331,0.147891746 10.3861592,0 12.6500366,0 L12.6500366,0 L33.3499634,0 L33.3499634,0 C35.613658,0 37.4325841,0.147891746 38.9094789,0.585534316 C40.2947876,0.995938481 41.303149,1.61803442 42.1480813,2.2684656 C43.6110829,3.39511187 44.6430263,4.99413424 45.0901714,6.12992092 C45.9908597,8.4183126 46,11.0147359 46,12.6499543 L46,33.3500457 C45.9998172,34.9850813 45.9906769,37.5815046 45.0899886,39.8700791 Z" id="XMLID_660_"></path>
            <g id="XMLID_648_" transform="translate(6.000000, 5.000000)" fill="#FFFFFF" fill-rule="nonzero">
                <path d="M20.0258667,21.980775 C19.3336,21.243735 18.1177333,20.771245 16.6824167,20.771245 C15.2469167,20.771245 14.03105,21.243735 13.3387833,21.980775 C12.9776167,22.36539 12.7865833,22.759625 12.72645,23.321285 C12.60985,24.4089 12.6753,25.34537 12.8016167,26.842575 C12.9218833,28.269295 13.1503167,30.171835 13.4484167,32.109525 C13.6605333,33.488515 13.8328667,34.23277 13.9898,34.765755 C14.2442667,35.62952 15.1952167,36.384875 16.6824167,36.384875 C18.1694333,36.384875 19.1203833,35.629335 19.37485,34.765755 C19.5317833,34.23277 19.7041167,33.488515 19.9162333,32.109525 C20.2143333,30.171835 20.4427667,28.269295 20.5630333,26.842575 C20.68935,25.345185 20.7548,24.408715 20.6382,23.321285 C20.5780667,22.75981 20.3870333,22.36539 20.0258667,21.980775 Z M12.9105167,15.41827 C12.9105167,17.522275 14.60085,19.227975 16.6859,19.227975 C18.7711333,19.227975 20.4614667,17.522275 20.4614667,15.41827 C20.4614667,13.31408 18.7711333,11.60838 16.6859,11.60838 C14.60085,11.60838 12.9105167,13.31408 12.9105167,15.41827 Z M16.63915,0.38332 C7.80926667,0.408665 0.574016667,7.63717 0.46475,16.54677 C0.376016667,23.764175 4.94175,29.937995 11.3171667,32.200915 C11.4719,32.25586 11.6290167,32.126175 11.6046333,31.96245 C11.5210333,31.402085 11.4422,30.838945 11.3697833,30.28524 C11.3441167,30.08951 11.22055,29.92079 11.0414333,29.841795 C6.00233333,27.620315 2.48361667,22.520605 2.54008333,16.61337 C2.61415,8.86113 8.88745,2.54116 16.56985,2.478445 C24.4236667,2.414435 30.8331833,8.842815 30.8331833,16.753415 C30.8331833,22.60145 27.3298667,27.63863 22.33,29.84235 C22.1508833,29.921345 22.02805,30.09062 22.0025667,30.286165 C21.93015,30.839685 21.8513167,31.40264 21.7679,31.96245 C21.7433333,32.126175 21.90045,32.25586 22.0551833,32.2011 C28.3697333,29.959825 32.9088833,23.88202 32.9088833,16.7536 C32.9085167,7.710985 25.6058,0.35742 16.63915,0.38332 Z M16.346,7.893395 C21.35155,7.69785 25.48535,11.75009 25.48535,16.75841 C25.48535,19.30549 24.4159667,21.60504 22.70675,23.22453 C22.5617333,23.3618 22.4838167,23.55679 22.495,23.757145 C22.5291,24.36635 22.5166333,24.95835 22.4764833,25.62694 C22.4656667,25.805095 22.6636667,25.91887 22.8097833,25.818415 C25.6760167,23.841875 27.5612333,20.51835 27.5612333,16.75841 C27.5612333,10.56757 22.451,5.558325 16.2636833,5.800305 C10.5136167,6.025265 5.9004,10.80918 5.8267,16.61559 C5.7783,20.43436 7.67506667,23.817455 10.57815,25.818785 C10.7239,25.91924 10.92135,25.80528 10.9105333,25.62731 C10.8702,24.95835 10.8579167,24.36635 10.8918333,23.757145 C10.9030167,23.556975 10.8252833,23.361985 10.6806333,23.2249 C8.91806667,21.55509 7.83566667,19.162115 7.9046,16.520315 C8.02596667,11.871265 11.7404833,8.0734 16.346,7.893395 Z" id="Shape"></path>
            </g>
        </g>
    </g>
</svg>