<svg width="48" height="48" xmlns="http://www.w3.org/2000/svg"><defs><linearGradient x1="50%" y1="0%" x2="50%" y2="100%" id="a"><stop stop-color="#F452FF" offset="0%"/><stop stop-color="#832BC1" offset="100%"/></linearGradient></defs><g fill="none" fill-rule="evenodd"><path d="M45.09 39.87c-.447 1.136-1.479 2.735-2.942 3.862-.845.65-1.853 1.272-3.239 1.682-1.476.438-3.295.586-5.56.586H12.65c-2.264 0-4.083-.148-5.56-.586-1.385-.41-2.393-1.032-3.238-1.682C2.389 42.605 1.357 41.006.91 39.87.01 37.582 0 34.985 0 33.35v-20.7c0-1.635.01-4.232.91-6.52.447-1.136 1.479-2.735 2.942-3.862C4.697 1.618 5.705.996 7.09.586 8.567.148 10.386 0 12.65 0h20.7c2.264 0 4.083.148 5.56.586 1.385.41 2.393 1.032 3.238 1.682 1.463 1.127 2.495 2.726 2.942 3.862.9 2.288.91 4.885.91 6.52v20.7c0 1.635-.01 4.232-.91 6.52z" fill="url(#a)" transform="translate(1 1)"/><path d="M46.09 40.87c-.447 1.136-1.479 2.735-2.942 3.862-.845.65-1.853 1.272-3.239 1.682-1.476.438-3.295.586-5.56.586H13.65c-2.264 0-4.083-.148-5.56-.586-1.385-.41-2.393-1.032-3.238-1.682-1.463-1.127-2.495-2.726-2.942-3.862-.9-2.288-.91-4.885-.91-6.52v-20.7c0-1.635.01-4.232.91-6.52.447-1.136 1.479-2.735 2.942-3.862.845-.65 1.853-1.272 3.239-1.682C9.567 1.148 11.386 1 13.65 1h20.7c2.264 0 4.083.148 5.56.586 1.385.41 2.393 1.032 3.238 1.682 1.463 1.127 2.495 2.726 2.942 3.862.9 2.288.91 4.885.91 6.52v20.7c0 1.635-.01 4.232-.91 6.52z"/><path d="M27.026 27.98c-.692-.736-1.908-1.209-3.344-1.209-1.435 0-2.65.473-3.343 1.21a2.149 2.149 0 0 0-.613 1.34c-.116 1.088-.05 2.024.076 3.522.12 1.426.348 3.329.646 5.267.213 1.379.385 2.123.542 2.656.254.864 1.205 1.619 2.692 1.619s2.438-.756 2.693-1.62c.157-.532.33-1.276.541-2.655.298-1.938.527-3.84.647-5.267.126-1.498.192-2.434.075-3.522a2.149 2.149 0 0 0-.612-1.34zm-7.115-6.562c0 2.104 1.69 3.81 3.775 3.81s3.775-1.706 3.775-3.81-1.69-3.81-3.775-3.81-3.775 1.706-3.775 3.81zm3.728-15.035c-8.83.026-16.065 7.254-16.174 16.164-.089 7.217 4.477 13.391 10.852 15.654a.218.218 0 0 0 .288-.239 94.178 94.178 0 0 1-.235-1.677.563.563 0 0 0-.329-.443 14.3 14.3 0 0 1-8.5-13.229c.073-7.752 6.346-14.072 14.029-14.135 7.854-.064 14.263 6.365 14.263 14.275a14.3 14.3 0 0 1-8.503 13.09.562.562 0 0 0-.327.443 95.294 95.294 0 0 1-.235 1.676.218.218 0 0 0 .287.24c6.315-2.242 10.854-8.32 10.854-15.448 0-9.043-7.303-16.397-16.27-16.37zm-.293 7.51c5.006-.195 9.14 3.857 9.14 8.865a8.886 8.886 0 0 1-2.78 6.467.682.682 0 0 0-.211.532c.034.61.022 1.201-.019 1.87a.214.214 0 0 0 .334.191 10.99 10.99 0 0 0 4.751-9.06c0-6.19-5.11-11.2-11.297-10.958-5.75.225-10.364 5.01-10.437 10.816a10.99 10.99 0 0 0 4.751 9.203c.146.1.343-.014.333-.192a15.836 15.836 0 0 1-.02-1.87.682.682 0 0 0-.21-.532 8.888 8.888 0 0 1-2.776-6.705c.121-4.649 3.835-8.447 8.441-8.627z" fill="#FFF" fill-rule="nonzero"/></g></svg>
