<?xml version="1.0" encoding="UTF-8"?>
<svg width="48px" height="48px" viewBox="0 0 48 48" version="1.1" xmlns="http://www.w3.org/2000/svg" xmlns:xlink="http://www.w3.org/1999/xlink">
    <!-- Generator: Sketch 53.2 (72643) - https://sketchapp.com -->
    <title>discord</title>
    <desc>Created with Sketch.</desc>
    <g id="Page-1" stroke="none" stroke-width="1" fill="none" fill-rule="evenodd">
        <g id="Discord" transform="translate(3.000000, 0.000000)" fill="#7289DA">
            <g id="f8389ca1a741a115313bede9ac02e2c0">
                <path d="M16.5096661,20 C15.1072056,20 14,21.1261261 14,22.5 C14,23.8738739 15.1318102,25 16.5096661,25 C17.9121265,25 19.0193322,23.8738739 19.0193322,22.5 C19.0439367,21.1261261 17.9121265,20 16.5096661,20 Z M25.4903339,20 C24.0878735,20 22.9806678,21.1261261 22.9806678,22.5 C22.9806678,23.8738739 24.112478,25 25.4903339,25 C26.8927944,25 28,23.8738739 28,22.5 C28,21.1261261 26.8927944,20 25.4903339,20 Z" id="Shape" fill-rule="nonzero"></path>
                <path d="M37.08,0 L4.92,0 C2.208,0 0,2.208 0,4.944 L0,37.392 C0,40.128 2.208,42.336 4.92,42.336 L32.136,42.336 L30.864,37.896 L33.936,40.752 L36.84,43.44 L42,48 L42,4.944 C42,2.208 39.792,0 37.08,0 Z M27.816,31.344 C27.816,31.344 26.952,30.312 26.232,29.4 C29.376,28.512 30.576,26.544 30.576,26.544 C29.592,27.192 28.656,27.648 27.816,27.96 C26.616,28.464 25.464,28.8 24.336,28.992 C22.032,29.424 19.92,29.304 18.12,28.968 C16.752,28.704 15.576,28.32 14.592,27.936 C14.04,27.72 13.44,27.456 12.84,27.12 C12.768,27.072 12.696,27.048 12.624,27 C12.576,26.976 12.552,26.952 12.528,26.928 C12.096,26.688 11.856,26.52 11.856,26.52 C11.856,26.52 13.008,28.44 16.056,29.352 C15.336,30.264 14.448,31.344 14.448,31.344 C9.144,31.176 7.128,27.696 7.128,27.696 C7.128,19.968 10.584,13.704 10.584,13.704 C14.04,11.112 17.328,11.184 17.328,11.184 L17.568,11.472 C13.248,12.72 11.256,14.616 11.256,14.616 C11.256,14.616 11.784,14.328 12.672,13.92 C15.24,12.792 17.28,12.48 18.12,12.408 C18.264,12.384 18.384,12.36 18.528,12.36 C19.992,12.168 21.648,12.12 23.376,12.312 C25.656,12.576 28.104,13.248 30.6,14.616 C30.6,14.616 28.704,12.816 24.624,11.568 L24.96,11.184 C24.96,11.184 28.248,11.112 31.704,13.704 C31.704,13.704 35.16,19.968 35.16,27.696 C35.16,27.696 33.12,31.176 27.816,31.344 L27.816,31.344 Z" id="Shape" fill-rule="nonzero"></path>
            </g>
        </g>
    </g>
</svg>