<svg width="48" height="48" xmlns="http://www.w3.org/2000/svg"><g fill-rule="nonzero" fill="#7289DA"><path d="M19.51 20A2.499 2.499 0 0 0 17 22.5c0 1.374 1.132 2.5 2.51 2.5a2.499 2.499 0 0 0 2.51-2.5c.024-1.374-1.108-2.5-2.51-2.5zm8.98 0a2.499 2.499 0 0 0-2.51 2.5c0 1.374 1.132 2.5 2.51 2.5A2.499 2.499 0 0 0 31 22.5c0-1.374-1.107-2.5-2.51-2.5z"/><path d="M40.08 0H7.92C5.208 0 3 2.208 3 4.944v32.448c0 2.736 2.208 4.944 4.92 4.944h27.216l-1.272-4.44 3.072 2.856 2.904 2.688L45 48V4.944C45 2.208 42.792 0 40.08 0zm-9.264 31.344s-.864-1.032-1.584-1.944c3.144-.888 4.344-2.856 4.344-2.856a13.734 13.734 0 0 1-2.76 1.416c-1.2.504-2.352.84-3.48 1.032-2.304.432-4.416.312-6.216-.024a20.147 20.147 0 0 1-3.528-1.032 14.065 14.065 0 0 1-1.752-.816c-.072-.048-.144-.072-.216-.12a.331.331 0 0 1-.096-.072 8.42 8.42 0 0 1-.672-.408s1.152 1.92 4.2 2.832c-.72.912-1.608 1.992-1.608 1.992-5.304-.168-7.32-3.648-7.32-3.648 0-7.728 3.456-13.992 3.456-13.992 3.456-2.592 6.744-2.52 6.744-2.52l.24.288c-4.32 1.248-6.312 3.144-6.312 3.144s.528-.288 1.416-.696c2.568-1.128 4.608-1.44 5.448-1.512.144-.024.264-.048.408-.048 1.464-.192 3.12-.24 4.848-.048 2.28.264 4.728.936 7.224 2.304 0 0-1.896-1.8-5.976-3.048l.336-.384s3.288-.072 6.744 2.52c0 0 3.456 6.264 3.456 13.992 0 0-2.04 3.48-7.344 3.648z"/></g></svg>
