<svg width="49" height="48" xmlns="http://www.w3.org/2000/svg"><path d="M23.998 0C10.747 0 0 10.787 0 24.095a24.09 24.09 0 0 0 16.413 22.862c1.2.222 1.638-.522 1.638-1.16 0-.572-.02-2.088-.032-4.098-6.676 1.455-8.084-3.23-8.084-3.23-1.092-2.784-2.666-3.525-2.666-3.525-2.179-1.494.165-1.465.165-1.465 2.41.17 3.676 2.484 3.676 2.484 2.141 3.681 5.618 2.618 6.986 2.001.218-1.556.838-2.618 1.523-3.22-5.33-.608-10.932-2.676-10.932-11.909 0-2.63.935-4.782 2.47-6.465-.247-.61-1.07-3.06.236-6.377 0 0 2.014-.648 6.6 2.47 1.913-.535 3.967-.801 6.008-.812 2.039.01 4.091.277 6.008.812 4.582-3.118 6.593-2.47 6.593-2.47 1.31 3.316.486 5.767.24 6.377 1.539 1.683 2.467 3.835 2.467 6.465 0 9.257-5.612 11.294-10.957 11.89.86.744 1.628 2.214 1.628 4.462 0 3.22-.03 5.82-.03 6.61 0 .644.433 1.394 1.65 1.159C41.13 43.762 48 34.738 48 24.096 48 10.786 37.253 0 23.998 0" fill="#555" fill-rule="evenodd"/></svg>
