<svg width="48" height="48" xmlns="http://www.w3.org/2000/svg"><defs><linearGradient x1="50%" y1="0%" x2="50%" y2="100.001%" id="a"><stop stop-color="#F79810" offset="0%"/><stop stop-color="#F8310E" offset="100%"/></linearGradient></defs><g fill="none" fill-rule="nonzero"><circle fill="url(#a)" cx="24" cy="24" r="24"/><path d="M4.453 23.936c-.083 0-.15.067-.16.164L4 26.44l.293 2.298c.01.097.077.165.16.165.08 0 .147-.067.16-.164l.346-2.3-.346-2.338c-.013-.097-.08-.164-.16-.164zm1.645-1.278c-.014-.1-.082-.17-.167-.17-.084 0-.154.072-.166.17l-.393 3.78.393 3.698c.011.1.081.171.166.171.084 0 .153-.07.167-.17l.447-3.698-.447-3.781zm6.196-3.488c-.161 0-.294.139-.302.316l-.313 6.956.313 4.496c.008.175.14.314.302.314.16 0 .294-.139.303-.315v.001l.354-4.496-.354-6.956c-.01-.177-.142-.316-.303-.316zm-3.207 2.418c-.124 0-.225.104-.235.243l-.352 4.61.352 4.459c.01.138.111.242.235.242.123 0 .224-.104.235-.242l.4-4.46-.4-4.61c-.011-.138-.112-.242-.235-.242zm6.466 9.664c.2 0 .363-.17.371-.388l.307-4.42-.306-9.261c-.009-.218-.171-.387-.371-.387-.202 0-.365.17-.372.387l-.272 9.26.272 4.423c.007.215.17.386.371.386zm6.672.02c.276 0 .503-.238.508-.532v.004-.004l.214-4.293-.214-10.696c-.005-.293-.232-.532-.508-.532-.275 0-.503.238-.507.532l-.192 10.692.192 4.3c.004.29.232.53.507.53zm-3.361-.016c.24 0 .433-.203.44-.46v.002l.26-4.353-.261-9.328c-.007-.258-.2-.46-.44-.46s-.434.202-.44.46l-.231 9.329.232 4.352c.005.255.199.458.44.458zm-8.18-.041c.143 0 .258-.12.269-.278l.378-4.497-.378-4.277c-.01-.158-.126-.277-.268-.277-.145 0-.26.12-.27.279l-.332 4.275.333 4.496c.01.159.124.279.269.279zm-3.181-.246c.104 0 .188-.087.2-.206l.425-4.324-.424-4.486c-.013-.12-.097-.206-.201-.206-.105 0-.19.087-.2.206l-.374 4.486.373 4.323c.01.12.095.207.2.207zM20.538 16.96c-.26 0-.469.218-.474.497l-.212 8.988.212 4.325c.005.275.213.493.474.493.26 0 .467-.217.473-.496v.004l.238-4.325-.238-8.99c-.006-.278-.213-.496-.473-.496zm-6.62 14.3c.18 0 .328-.155.337-.352l.33-4.466-.33-8.547c-.01-.198-.157-.351-.337-.351-.182 0-.33.154-.338.35l-.292 8.548.293 4.468c.007.195.155.35.337.35zm3.689-.422v-.002l.284-4.392-.284-9.574c-.007-.237-.185-.424-.405-.424-.221 0-.4.186-.405.424l-.252 9.573.252 4.395c.006.235.184.421.405.421.22 0 .398-.186.405-.423v.002zm21.473-9.913a4.7 4.7 0 0 0-1.903.402C36.786 16.661 33.067 13 28.532 13a8.41 8.41 0 0 0-3.147.619c-.372.151-.47.307-.474.609v16.436c.004.317.237.58.531.612l13.638.009c2.717 0 4.92-2.32 4.92-5.18s-2.203-5.179-4.92-5.179zm-15.175-6.713c-.295 0-.538.256-.542.57l-.222 11.665.222 4.234c.004.31.247.565.542.565.295 0 .537-.255.542-.57v.006l.241-4.235-.241-11.666c-.005-.313-.247-.569-.542-.569z" fill="#FFF"/></g></svg>
