<svg width="935" height="432" xmlns="http://www.w3.org/2000/svg" xmlns:xlink="http://www.w3.org/1999/xlink"><defs><path id="b" d="M117.6 180.3h64.8v64.8h-64.8z"/><filter x="-.8%" y="-.8%" width="101.5%" height="103.1%" filterUnits="objectBoundingBox" id="a"><feOffset dy="1" in="SourceAlpha" result="shadowOffsetOuter1"/><feComposite in="shadowOffsetOuter1" in2="SourceAlpha" operator="out" result="shadowOffsetOuter1"/><feColorMatrix values="0 0 0 0 0 0 0 0 0 0 0 0 0 0 0 0 0 0 0.02 0" in="shadowOffsetOuter1"/></filter><path id="d" d="M150.9 213.6h64.8v64.8h-64.8z"/><filter x="-.8%" y="-.8%" width="101.5%" height="103.1%" filterUnits="objectBoundingBox" id="c"><feOffset dy="1" in="SourceAlpha" result="shadowOffsetOuter1"/><feComposite in="shadowOffsetOuter1" in2="SourceAlpha" operator="out" result="shadowOffsetOuter1"/><feColorMatrix values="0 0 0 0 0 0 0 0 0 0 0 0 0 0 0 0 0 0 0.02 0" in="shadowOffsetOuter1"/></filter><path d="M183.4266 272.7l-4.779-6.903h-5.2746v6.903h-5.7348v-24.78h10.7262c2.194811 0 4.100492.365796 5.7171 1.0974 1.616608.731604 2.861496 1.769993 3.7347 3.1152.873204 1.345207 1.3098 2.938191 1.3098 4.779 0 1.840809-.442496 3.427893-1.3275 4.7613-.885004 1.333407-2.141692 2.354096-3.7701 3.0621l5.5578 7.965h-6.1596zm-.1062-15.7884c0-1.392407-.448396-2.460296-1.3452-3.2037-.896804-.743404-2.206591-1.1151-3.9294-1.1151h-4.6728v8.6376h4.6728c1.722809 0 3.032596-.377596 3.9294-1.1328.896804-.755204 1.3452-1.817193 1.3452-3.186zm29.5236 11.1864v4.602h-19.1868v-24.78h18.7266v4.602h-13.0272v5.3808h11.505v4.4604h-11.505v5.7348h13.4874z" id="e"/><filter x="-1.1%" y="-2%" width="102.2%" height="104%" filterUnits="objectBoundingBox" id="f"><feOffset dy="1" in="SourceAlpha" result="shadowOffsetInner1"/><feComposite in="shadowOffsetInner1" in2="SourceAlpha" operator="arithmetic" k2="-1" k3="1" result="shadowInnerInner1"/><feColorMatrix values="0 0 0 0 0 0 0 0 0 0 0 0 0 0 0 0 0 0 0.02 0" in="shadowInnerInner1"/></filter></defs><g fill="none" fill-rule="evenodd"><path stroke="#000" stroke-width="1.2" fill="#FFF" d="M92.1 158.4h120.6v159.9H92.1z"/><use fill="#000" filter="url(#a)" xlink:href="#b"/><path stroke="#D74837" stroke-width=".5" stroke-linejoin="square" fill="#DD4B39" d="M117.85 180.55h64.3v64.3h-64.3z"/><path stroke="#000" stroke-width="1.2" fill="#FFF" d="M263.7 81.9h120.6v159.9H263.7z"/><path d="M365.076937 93.3h-82.153875C279.105657 93.3 276 96.405656 276 100.223063v46.153875c0 3.817593 3.105656 6.923062 6.923063 6.923062h82.153875C368.89453 153.3 372 150.194531 372 146.376937v-46.153875C372 96.405656 368.894531 93.3 365.076937 93.3zM330 141.288281L318 141.3v-18l-9 11.538469L300 123.3v18h-12v-36h12l9 12 9-12 12-.011719v36zm17.914781 3L333 123.3h9v-18h12v18h9l-15.085219 20.988281z" fill="#000" fill-rule="nonzero"/><path stroke="#000" stroke-width="1.2" fill="#FFF" d="M185.7 102h120.6v159.9H185.7z"/><path d="M287.076937 114.6h-82.153875C201.105656 114.6 198 117.705656 198 121.523063v46.153875c0 3.817593 3.105656 6.923062 6.923063 6.923062h82.153875C290.89453 174.6 294 171.494531 294 167.676938v-46.153875c0-3.817407-3.105469-6.923063-6.923063-6.923063zM252 162.588281L240 162.6v-18l-9 11.538469L222 144.6v18h-12v-36h12l9 12 9-12 12-.011719v36zm17.914781 3L255 144.6h9v-18h12v18h9l-15.085219 20.988281zM322.176938 174.6h-82.153875c-3.817407 0-6.923063 3.105656-6.923063 6.923063v46.153874c0 3.817594 3.105656 6.923063 6.923063 6.923063h82.153875c3.817593 0 6.923062-3.105469 6.923062-6.923063v-46.153875c0-3.817406-3.105469-6.923062-6.923063-6.923062zM287.1 222.588281l-12 .011719v-18l-9 11.538469-9-11.538469v18h-12v-36h12l9 12 9-12 12-.011719v36zm17.914781 3L290.1 204.6h9v-18h12v18h9l-15.085219 20.988281z" fill="#000" fill-rule="nonzero"/><path stroke="#000" stroke-width="1.2" fill="#FFF" d="M220.8 158.4h120.6v159.9H220.8z"/><path d="M322.176938 174.6h-82.153875c-3.817407 0-6.923063 3.105656-6.923063 6.923063v46.153874c0 3.817594 3.105656 6.923063 6.923063 6.923063h82.153875c3.817593 0 6.923062-3.105469 6.923062-6.923063v-46.153875c0-3.817406-3.105469-6.923062-6.923063-6.923062zM287.1 222.588281l-12 .011719v-18l-9 11.538469-9-11.538469v18h-12v-36h12l9 12 9-12 12-.011719v36zm17.914781 3L290.1 204.6h9v-18h12v18h9l-15.085219 20.988281z" fill="#000" fill-rule="nonzero"/><path stroke="#000" stroke-width="1.2" fill="#FFF" d="M125.4 191.7H246v159.9H125.4z"/><text font-family="ArialMT, Arial" font-size="62.4" fill="#000"><tspan x="555" y="130.4">JSONs</tspan> <tspan x="555" y="199.4">HTMLs</tspan> <tspan x="555" y="268.4">JavaScripts</tspan> <tspan x="555" y="337.4" text-decoration="line-through">CSSs</tspan></text><use fill="#000" filter="url(#c)" xlink:href="#d"/><path stroke="#D74837" stroke-width=".5" stroke-linejoin="square" fill="#DD4B39" d="M151.15 213.85h64.3v64.3h-64.3z"/><g fill-rule="nonzero"><use fill="#FFF" xlink:href="#e"/><use fill="#000" filter="url(#f)" xlink:href="#e"/></g><g stroke="#000" stroke-linecap="round" stroke-linejoin="round" stroke-width="3.6"><path d="M435 218.1h54M463.8 243.3l25.2-25.2-25.2-25.2"/></g></g></svg>