<?xml version="1.0" encoding="utf-8"?>
<!-- Generator: Adobe Illustrator 16.0.0, SVG Export Plug-In . SVG Version: 6.00 Build 0)  -->
<!DOCTYPE svg PUBLIC "-//W3C//DTD SVG 1.1//EN" "http://www.w3.org/Graphics/SVG/1.1/DTD/svg11.dtd">
<svg version="1.1" id="Layer_1" xmlns="http://www.w3.org/2000/svg" xmlns:xlink="http://www.w3.org/1999/xlink" x="0px" y="0px"
	 width="512px" height="512px" viewBox="0 0 512 512" enable-background="new 0 0 512 512" xml:space="preserve">
<linearGradient id="background_1_" gradientUnits="userSpaceOnUse" x1="189.9912" y1="134.3999" x2="189.9912" y2="562.7446" gradientTransform="matrix(1.1953 0 0 1.1953 28.9047 -160.6481)">
	<stop  offset="0" style="stop-color:#FFFFFF"/>
	<stop  offset="1" style="stop-color:#EEEEEE"/>
</linearGradient>
<rect id="background" fill="url(#background_1_)" width="512" height="512"/>
<g id="P-group">
	
		<path id="P" vector-effect="non-scaling-stroke" fill="#444444" stroke="#333333" stroke-linecap="round" stroke-linejoin="round" stroke-miterlimit="10" d="
		M237.247,196.5H182v123h27.551v-45.188h28.086c7.596,0,14.055-1.103,19.378-3.303c5.322-2.195,9.655-5.138,13.019-8.747
		c3.364-3.604,5.801-7.794,7.327-12.496c1.527-4.706,2.312-9.493,2.312-14.362c0-4.979-0.784-9.808-2.312-14.428
		c-1.567-4.625-4.024-8.789-7.387-12.396c-3.363-3.605-7.766-6.551-13.168-8.747C251.424,197.641,244.921,196.5,237.247,196.5z
		 M230.725,254.229h-21.173v-37.641h21.173c3.096,0,6.107,0.228,8.996,0.704c2.891,0.478,5.428,1.411,7.635,2.738
		c2.187,1.346,3.941,3.273,5.285,5.697c1.319,2.464,1.979,5.68,1.979,9.683s-0.66,7.253-1.979,9.68
		c-1.344,2.486-3.1,4.396-5.285,5.742c-2.207,1.327-4.744,2.236-7.635,2.695C236.834,254.003,233.82,254.229,230.725,254.229z"/>
</g>
<g id="exclamation-group">
	
		<path id="exclamation-mark" vector-effect="non-scaling-stroke" fill="#444444" stroke="#333333" stroke-linecap="round" stroke-linejoin="round" stroke-miterlimit="10" d="
		M297.116,308.936c0,9.709,7.241,17.064,17.44,17.064c10.202,0,17.442-7.357,17.442-17.064c0-9.25-7.24-16.327-17.44-16.327
		C304.355,291.842,297.116,299.2,297.116,308.936z M329.701,245.596V196h-30.292v49.596l6.886,37.64h16.521L329.701,245.596z"/>
</g>
<g id="Layer_6_2_">
	
		<linearGradient id="brace-left_1_" gradientUnits="userSpaceOnUse" x1="79.0488" y1="59.5239" x2="79.0488" y2="147.3691" gradientTransform="matrix(2.3906 0 0 2.3906 203.0261 8.7039)">
		<stop  offset="0" style="stop-color:#C5372F"/>
		<stop  offset="1" style="stop-color:#990000"/>
	</linearGradient>
	
		<path id="brace-left_2_" vector-effect="non-scaling-stroke" fill="url(#brace-left_1_)" stroke="#8B2721" stroke-linecap="round" stroke-linejoin="round" stroke-miterlimit="10" d="
		M363.664,334.445c2.755,0,4.955-0.562,6.592-1.577c1.639-1.095,2.916-2.451,3.854-4.009c0.923-1.614,1.519-3.431,1.758-5.362
		c0.22-1.996,0.382-3.806,0.382-5.465v-36.5c0-4.823,0.895-8.829,2.715-11.96c1.818-3.09,3.979-5.621,6.469-7.519
		c2.48-1.873,5.059-3.269,7.773-4.104c2.733-0.817,4.952-1.355,6.706-1.496v-0.697c-1.756-0.139-3.973-0.598-6.706-1.355
		c-2.718-0.735-5.293-2.111-7.773-3.984c-2.49-1.896-4.647-4.564-6.469-7.994c-1.82-3.408-2.715-7.936-2.715-13.574V194.18
		c0-1.812-0.162-3.707-0.382-5.662c-0.239-1.955-0.837-3.769-1.758-5.361c-0.938-1.575-2.219-2.932-3.854-3.987
		s-3.837-1.613-6.592-1.613H352V151h28.781c2.693,0,5.753,0.676,9.169,1.953c3.414,1.315,6.632,3.25,9.591,5.762
		c2.953,2.532,5.449,5.741,7.53,9.669c2.036,3.927,3.111,8.473,3.111,13.695v43.299c0,3.849,0.742,7.118,2.3,9.788
		c1.56,2.691,3.417,4.844,5.613,6.459c2.157,1.615,4.875,2.751,7.393,3.43c2.496,0.679,4.651,1.017,6.512,1.017v20.073
		c-1.857,0-4.016,0.382-6.512,1.061c-2.518,0.677-5.232,1.771-7.395,3.21c-2.194,1.455-4.055,3.429-5.611,5.88
		c-1.558,2.453-2.3,5.423-2.3,8.932v44.697c0,5.2-1.075,9.771-3.111,13.696c-2.079,3.927-4.577,7.115-7.532,9.688
		c-2.955,2.488-6.175,4.403-9.589,5.741c-3.416,1.274-6.476,1.954-9.169,1.954H352v-26.554L363.664,334.445L363.664,334.445
		L363.664,334.445z"/>
</g>
<g id="brace-l_2_">
	
		<linearGradient id="brace-right_1_" gradientUnits="userSpaceOnUse" x1="-34.73" y1="59.5229" x2="-34.73" y2="147.3672" gradientTransform="matrix(2.3906 0 0 2.3906 203.0261 8.7039)">
		<stop  offset="0" style="stop-color:#C5372F"/>
		<stop  offset="1" style="stop-color:#990000"/>
	</linearGradient>
	
		<path id="brace-right_2_" vector-effect="non-scaling-stroke" fill="url(#brace-right_1_)" stroke="#8B2721" stroke-linecap="round" stroke-linejoin="round" stroke-miterlimit="10" d="
		M148.335,177.555c-2.797,0-4.995,0.561-6.632,1.615c-1.618,1.057-2.916,2.413-3.815,3.987c-0.958,1.596-1.559,3.409-1.778,5.361
		c-0.24,1.955-0.339,3.849-0.339,5.664v34.666c0,5.642-0.958,10.166-2.776,13.575c-1.818,3.432-3.975,6.102-6.432,7.993
		c-2.496,1.874-5.073,3.25-7.811,3.984c-2.716,0.76-4.914,1.218-6.671,1.355v0.697c1.758,0.139,3.955,0.678,6.671,1.495
		c2.737,0.838,5.314,2.231,7.811,4.104c2.456,1.896,4.614,4.429,6.432,7.519c1.817,3.131,2.776,7.137,2.776,11.961v36.501
		c0,1.653,0.101,3.466,0.339,5.463c0.22,1.931,0.818,3.748,1.778,5.362c0.899,1.555,2.197,2.909,3.815,4.006
		c1.637,1.021,3.835,1.58,6.632,1.58H160v26.553h-28.784c-2.716,0-5.792-0.676-9.208-1.954c-3.396-1.337-6.592-3.251-9.548-5.741
		c-2.937-2.572-5.493-5.761-7.531-9.688c-2.077-3.928-3.097-8.496-3.097-13.701v-44.693c0-3.509-0.798-6.478-2.357-8.932
		c-1.558-2.449-3.415-4.424-5.573-5.879c-2.198-1.438-5.154-2.531-7.65-3.21c-2.497-0.68-4.534-1.061-6.252-1.061V246.07
		c1.718,0,3.755-0.338,6.252-1.017c2.497-0.68,5.453-1.812,7.65-3.431c2.158-1.615,4.015-3.77,5.573-6.459
		c1.559-2.671,2.357-5.938,2.357-9.788v-43.299c0-5.226,1.019-9.771,3.097-13.695c2.038-3.927,4.595-7.137,7.531-9.669
		c2.956-2.511,6.151-4.444,9.548-5.761c3.416-1.276,6.492-1.954,9.208-1.954H160v26.553L148.335,177.555L148.335,177.555z"/>
</g>
</svg>
