<svg width="48" height="48" xmlns="http://www.w3.org/2000/svg"><g fill="none" fill-rule="evenodd"><rect fill="#1DA1F2" width="48" height="48" rx="24"/><path d="M37.07 19.39c0-.256 0-.51-.018-.764A12.022 12.022 0 0 0 40 15.567a11.794 11.794 0 0 1-3.394.93 5.93 5.93 0 0 0 2.598-3.268 11.841 11.841 0 0 1-3.752 1.434 5.914 5.914 0 0 0-10.07 5.389 16.775 16.775 0 0 1-12.178-6.174 5.913 5.913 0 0 0 1.83 7.888 5.865 5.865 0 0 1-2.682-.74v.075a5.91 5.91 0 0 0 4.74 5.793 5.9 5.9 0 0 1-2.668.1 5.916 5.916 0 0 0 5.52 4.104 11.856 11.856 0 0 1-8.744 2.45 16.728 16.728 0 0 0 9.057 2.65c10.868.004 16.812-9 16.812-16.809z" fill="#FFF" fill-rule="nonzero"/></g></svg>
