<?xml version="1.0" encoding="UTF-8"?>
<svg width="2332px" height="1990px" viewBox="0 0 2332 1990" version="1.1" xmlns="http://www.w3.org/2000/svg" xmlns:xlink="http://www.w3.org/1999/xlink">
    <!-- Generator: Sketch 52.1 (67048) - http://www.bohemiancoding.com/sketch -->
    <title>Artboard</title>
    <desc>Created with Sketch.</desc>
    <g id="Artboard" stroke="none" stroke-width="1" fill="none" fill-rule="evenodd">
        <rect id="Rectangle" fill="#D8D8D8" x="671" y="201" width="889" height="544"></rect>
        <rect id="Rectangle" fill="#FFFFFF" x="701" y="235" width="827" height="220"></rect>
        <text id="&lt;Title-/&gt;" font-family="PragmataPro" font-size="88" font-weight="normal" fill="#484F53">
            <tspan x="917" y="369">&lt;Title /&gt;</tspan>
        </text>
        <rect id="Rectangle" fill="#FFFFFF" x="702" y="487" width="827" height="220"></rect>
        <text id="&lt;Article-/&gt;" font-family="PragmataPro" font-size="88" font-weight="normal" fill="#484F53">
            <tspan x="873" y="621">&lt;Article /&gt;</tspan>
        </text>
        <rect id="Rectangle" fill="#D8D8D8" x="226" y="1178" width="889" height="642"></rect>
        <rect id="Rectangle" fill="#FFFFFF" x="256" y="1212" width="827" height="220"></rect>
        <text id="&lt;Title-/&gt;" font-family="PragmataPro" font-size="88" font-weight="normal" fill="#484F53">
            <tspan x="472" y="1346">&lt;Title /&gt;</tspan>
        </text>
        <rect id="Rectangle" fill="#4CB877" x="257" y="1452" width="827" height="97"></rect>
        <text id="&lt;Spacer-/&gt;" font-family="PragmataPro" font-size="58" font-weight="normal" fill="#FFFFFF">
            <tspan x="523" y="1523">&lt;Spacer /&gt;</tspan>
        </text>
        <rect id="Rectangle" fill="#FFFFFF" x="257" y="1574" width="827" height="220"></rect>
        <text id="&lt;Article-/&gt;" font-family="PragmataPro" font-size="88" font-weight="normal" fill="#484F53">
            <tspan x="428" y="1708">&lt;Article /&gt;</tspan>
        </text>
        <rect id="Rectangle" fill="#D8D8D8" x="1219" y="1178" width="889" height="642"></rect>
        <rect id="Rectangle" fill="#FFFFFF" x="1249" y="1212" width="827" height="220"></rect>
        <rect id="Rectangle" fill="#F8E71C" x="1249" y="1432" width="827" height="117"></rect>
        <text id="marginBottom:-10px" font-family="PragmataPro" font-size="58" font-weight="normal" fill="#484F53">
            <tspan x="1421" y="1517">marginBottom: 10px</tspan>
        </text>
        <text id="&lt;Title-/&gt;" font-family="PragmataPro" font-size="88" font-weight="normal" fill="#484F53">
            <tspan x="1465" y="1346">&lt;Title /&gt;</tspan>
        </text>
        <rect id="Rectangle" fill="#FFFFFF" x="1250" y="1574" width="827" height="220"></rect>
        <text id="&lt;Article-/&gt;" font-family="PragmataPro" font-size="88" font-weight="normal" fill="#484F53">
            <tspan x="1421" y="1708">&lt;Article /&gt;</tspan>
        </text>
        <path d="M1082,778.275856 C1079.57698,841.178426 1043.1379,904.157049 972.682738,967.211727 C902.227579,1030.2664 868.666667,1090.05661 872,1146.58233" id="Path" stroke="#979797" stroke-width="11"></path>
        <path d="M1382,778.275856 C1379.57698,841.178426 1343.1379,904.157049 1272.68274,967.211727 C1202.22758,1030.2664 1168.66667,1090.05661 1172,1146.58233" id="Path" stroke="#979797" stroke-width="11" transform="translate(1276.887065, 962.429095) scale(-1, 1) translate(-1276.887065, -962.429095) "></path>
    </g>
</svg>
