<?xml version="1.0" encoding="utf-8"?>
<!-- Generator: Adobe Illustrator 16.0.0, SVG Export Plug-In . SVG Version: 6.00 Build 0)  -->
<!DOCTYPE svg PUBLIC "-//W3C//DTD SVG 1.1//EN" "http://www.w3.org/Graphics/SVG/1.1/DTD/svg11.dtd">
<svg version="1.1" id="Layer_1" xmlns="http://www.w3.org/2000/svg" xmlns:xlink="http://www.w3.org/1999/xlink" x="0px" y="0px"
	 width="512px" height="512px" viewBox="-49.5 652.5 512 512" enable-background="new -49.5 652.5 512 512" xml:space="preserve">
<g id="shadow-group">
	
		<radialGradient id="shadow_1_" cx="206.4546" cy="-395.0098" r="243.7911" gradientTransform="matrix(0.9784 0 0 -0.9765 4.504 505.6038)" gradientUnits="userSpaceOnUse">
		<stop  offset="0.8" style="stop-color:#000000"/>
		<stop  offset="0.95" style="stop-color:#333333"/>
	</radialGradient>
	
		<linearGradient id="shadow_2_" gradientUnits="userSpaceOnUse" x1="-34" y1="-376.3311" x2="447" y2="-376.3311" gradientTransform="matrix(1 0 0 -1 0 515)">
		<stop  offset="0" style="stop-color:#333333"/>
		<stop  offset="1" style="stop-color:#000000"/>
	</linearGradient>
	
		<path id="shadow" vector-effect="non-scaling-stroke" opacity="0.4" fill="url(#shadow_1_)" stroke="url(#shadow_2_)" stroke-miterlimit="10" enable-background="new    " d="
		M-33.5,891.331c0-130.655,107.456-236.581,240.01-236.581c132.535,0,239.99,105.927,239.99,236.581
		c0,130.653-107.455,236.581-239.99,236.581C73.956,1127.911-33.5,1021.984-33.5,891.331z"/>
	
		<linearGradient id="shadow--stroke_1_" gradientUnits="userSpaceOnUse" x1="-34.5" y1="-377.1689" x2="447.5" y2="-377.1689" gradientTransform="matrix(1 0 0 -1 0 515)">
		<stop  offset="0" style="stop-color:#333333"/>
		<stop  offset="1" style="stop-color:#000000"/>
	</linearGradient>
	
		<path id="shadow--stroke" opacity="0.2" fill="none" stroke="url(#shadow--stroke_1_)" stroke-width="2" stroke-miterlimit="10" enable-background="new    " d="
		M-33.5,892.169c0-130.655,107.456-236.581,240.01-236.581c132.535,0,239.99,105.928,239.99,236.581
		c0,130.654-107.455,236.581-239.99,236.581C73.956,1128.75-33.5,1022.824-33.5,892.169z"/>
</g>
<g id="bubble-group">
	
		<linearGradient id="bubble_2_" gradientUnits="userSpaceOnUse" x1="30.2466" y1="427.8506" x2="30.2465" y2="228.3193" gradientTransform="matrix(2.3906 0 0 -2.3906 134.1921 1708.0696)">
		<stop  offset="0" style="stop-color:#FFFFFF"/>
		<stop  offset="1" style="stop-color:#EEEEEE"/>
	</linearGradient>
	<path id="bubble_1_" vector-effect="non-scaling-stroke" fill="url(#bubble_2_)" stroke="#7A7A7A" stroke-miterlimit="10" d="
		M1,889.671c0,112.916,92.003,204.444,205.51,204.444c1.283,0,2.565-0.019,3.828-0.04c19.795,40.379,61.281,68.175,109.258,68.175
		c3.686,0,7.334-0.157,10.941-0.481c-20.401-23.875-33.307-54.348-35.07-87.771C364.424,1041.018,412,970.873,412,889.673
		c0-112.894-92.004-204.423-205.49-204.423C93.004,685.247,1,776.777,1,889.671z"/>
	<path id="bubble--stroke" fill="none" stroke="#7A7A7A" stroke-width="2" stroke-miterlimit="10" d="M1,889.671
		c0,112.916,92.003,204.444,205.51,204.444c1.283,0,2.565-0.019,3.828-0.04c19.795,40.379,61.281,68.175,109.258,68.175
		c3.686,0,7.334-0.157,10.941-0.481c-20.401-23.875-33.307-54.348-35.07-87.771C364.424,1041.018,412,970.873,412,889.673
		c0-112.894-92.004-204.423-205.49-204.423C93.004,685.247,1,776.777,1,889.671z"/>
</g>
<g id="p_x21_">
	<g id="P-group">
		
			<path id="P" vector-effect="non-scaling-stroke" fill="#444444" stroke="#333333" stroke-linecap="round" stroke-linejoin="round" stroke-miterlimit="10" d="
			M187.747,832.25H132.5v123h27.551v-45.188h28.086c7.596,0,14.055-1.102,19.378-3.302c5.323-2.196,9.656-5.138,13.019-8.745
			c3.364-3.605,5.801-7.795,7.327-12.498c1.527-4.707,2.312-9.494,2.312-14.363c0-4.978-0.785-9.807-2.312-14.428
			c-1.567-4.625-4.024-8.789-7.387-12.396c-3.363-3.605-7.765-6.551-13.168-8.747C201.924,833.391,195.421,832.25,187.747,832.25z
			 M181.225,889.979h-21.173v-37.641h21.173c3.096,0,6.107,0.227,8.996,0.704c2.891,0.478,5.428,1.411,7.635,2.738
			c2.187,1.346,3.941,3.274,5.285,5.698c1.319,2.463,1.979,5.679,1.979,9.682s-0.66,7.253-1.979,9.68
			c-1.344,2.486-3.1,4.395-5.285,5.742c-2.207,1.327-4.744,2.236-7.635,2.695C187.334,889.753,184.32,889.979,181.225,889.979z"/>
		
			<path id="P--stroke" fill="none" stroke="#333333" stroke-width="2" stroke-linecap="round" stroke-linejoin="round" stroke-miterlimit="10" d="
			M187.747,832.25H132.5v123h27.551v-45.188h28.086c7.596,0,14.055-1.102,19.378-3.302c5.323-2.196,9.656-5.138,13.019-8.745
			c3.364-3.605,5.801-7.795,7.327-12.498c1.527-4.707,2.312-9.494,2.312-14.363c0-4.978-0.785-9.807-2.312-14.428
			c-1.567-4.625-4.024-8.789-7.387-12.396c-3.363-3.605-7.765-6.551-13.168-8.747C201.924,833.391,195.421,832.25,187.747,832.25z
			 M181.225,889.979h-21.173v-37.641h21.173c3.096,0,6.107,0.227,8.996,0.704c2.891,0.478,5.428,1.411,7.635,2.738
			c2.187,1.346,3.941,3.274,5.285,5.698c1.319,2.463,1.979,5.679,1.979,9.682s-0.66,7.253-1.979,9.68
			c-1.344,2.486-3.1,4.395-5.285,5.742c-2.207,1.327-4.744,2.236-7.635,2.695C187.334,889.753,184.32,889.979,181.225,889.979z"/>
	</g>
	<g id="exclamation-group">
		
			<path id="exclamation-mark" vector-effect="non-scaling-stroke" fill="#444444" stroke="#333333" stroke-linecap="round" stroke-linejoin="round" stroke-miterlimit="10" d="
			M247.616,944.686c0,9.709,7.241,17.064,17.44,17.064c10.202,0,17.442-7.357,17.442-17.064c0-9.25-7.24-16.328-17.441-16.328
			C254.855,927.592,247.616,934.95,247.616,944.686z M280.201,881.346V831.75h-30.292v49.596l6.886,37.639h16.521L280.201,881.346z"
			/>
		
			<path id="exclamation-mark--stroke" fill="none" stroke="#333333" stroke-width="2" stroke-linecap="round" stroke-linejoin="round" stroke-miterlimit="10" d="
			M247.616,944.686c0,9.709,7.241,17.064,17.44,17.064c10.202,0,17.442-7.357,17.442-17.064c0-9.25-7.24-16.328-17.441-16.328
			C254.855,927.592,247.616,934.95,247.616,944.686z M280.201,881.346V831.75h-30.292v49.596l6.886,37.639h16.521L280.201,881.346z"
			/>
	</g>
</g>
<g id="braces">
	<g id="Layer_6_2_">
		
			<linearGradient id="brace-left_1_" gradientUnits="userSpaceOnUse" x1="87.1362" y1="385.3936" x2="87.1362" y2="297.5488" gradientTransform="matrix(2.3906 0 0 -2.3906 134.1921 1708.0696)">
			<stop  offset="0" style="stop-color:#C5372F"/>
			<stop  offset="1" style="stop-color:#990000"/>
		</linearGradient>
		
			<path id="brace-left_2_" vector-effect="non-scaling-stroke" fill="url(#brace-left_1_)" stroke="#8B2721" stroke-linecap="round" stroke-linejoin="round" stroke-miterlimit="10" d="
			M314.164,970.195c2.755,0,4.955-0.561,6.592-1.577c1.639-1.095,2.916-2.451,3.854-4.009c0.923-1.614,1.519-3.43,1.758-5.362
			c0.22-1.996,0.382-3.806,0.382-5.465v-36.5c0-4.823,0.895-8.829,2.715-11.96c1.818-3.09,3.978-5.622,6.469-7.516
			c2.48-1.873,5.058-3.27,7.773-4.106c2.733-0.818,4.952-1.354,6.706-1.496v-0.697c-1.756-0.139-3.973-0.598-6.706-1.356
			c-2.718-0.735-5.293-2.111-7.773-3.984c-2.491-1.895-4.648-4.564-6.469-7.994c-1.82-3.408-2.715-7.936-2.715-13.574v-34.669
			c0-1.812-0.162-3.706-0.382-5.661c-0.239-1.955-0.837-3.769-1.758-5.363c-0.938-1.574-2.218-2.93-3.854-3.986
			s-3.837-1.613-6.592-1.613H302.5V786.75h28.781c2.694,0,5.753,0.676,9.169,1.953c3.414,1.316,6.632,3.25,9.591,5.762
			c2.953,2.532,5.449,5.741,7.53,9.669c2.036,3.927,3.112,8.472,3.112,13.695v43.299c0,3.849,0.742,7.118,2.299,9.788
			c1.56,2.691,3.417,4.844,5.614,6.459c2.157,1.615,4.875,2.751,7.392,3.43c2.496,0.678,4.652,1.016,6.512,1.016v20.076
			c-1.857,0-4.016,0.379-6.512,1.058c-2.517,0.677-5.232,1.772-7.394,3.209c-2.195,1.455-4.055,3.429-5.612,5.88
			c-1.557,2.453-2.299,5.423-2.299,8.932v44.697c0,5.2-1.076,9.771-3.112,13.696c-2.079,3.927-4.577,7.116-7.532,9.688
			c-2.955,2.487-6.175,4.402-9.589,5.74c-3.416,1.275-6.475,1.954-9.169,1.954H302.5v-26.554L314.164,970.195L314.164,970.195
			L314.164,970.195z"/>
		
			<path id="brace-left--stroke_2_" fill="none" stroke="#8B2721" stroke-width="2" stroke-linecap="round" stroke-linejoin="round" stroke-miterlimit="10" d="
			M314.164,970.195c2.755,0,4.955-0.561,6.592-1.577c1.639-1.095,2.916-2.451,3.854-4.009c0.923-1.614,1.519-3.43,1.758-5.362
			c0.22-1.996,0.382-3.806,0.382-5.465v-36.5c0-4.823,0.895-8.829,2.715-11.96c1.818-3.09,3.978-5.622,6.469-7.516
			c2.48-1.873,5.058-3.27,7.773-4.106c2.733-0.818,4.952-1.354,6.706-1.496v-0.697c-1.756-0.139-3.973-0.598-6.706-1.356
			c-2.718-0.735-5.293-2.111-7.773-3.984c-2.491-1.895-4.648-4.564-6.469-7.994c-1.82-3.408-2.715-7.936-2.715-13.574v-34.669
			c0-1.812-0.162-3.706-0.382-5.661c-0.239-1.955-0.837-3.769-1.758-5.363c-0.938-1.574-2.218-2.93-3.854-3.986
			s-3.837-1.613-6.592-1.613H302.5V786.75h28.781c2.694,0,5.753,0.676,9.169,1.953c3.414,1.316,6.632,3.25,9.591,5.762
			c2.953,2.532,5.449,5.741,7.53,9.669c2.036,3.927,3.112,8.472,3.112,13.695v43.299c0,3.849,0.742,7.118,2.299,9.788
			c1.56,2.691,3.417,4.844,5.614,6.459c2.157,1.615,4.875,2.751,7.392,3.43c2.496,0.678,4.652,1.016,6.512,1.016v20.076
			c-1.857,0-4.016,0.379-6.512,1.058c-2.517,0.677-5.232,1.772-7.394,3.209c-2.195,1.455-4.055,3.429-5.612,5.88
			c-1.557,2.453-2.299,5.423-2.299,8.932v44.697c0,5.2-1.076,9.771-3.112,13.696c-2.079,3.927-4.577,7.116-7.532,9.688
			c-2.955,2.487-6.175,4.402-9.589,5.74c-3.416,1.275-6.475,1.954-9.169,1.954H302.5v-26.554L314.164,970.195L314.164,970.195
			L314.164,970.195z"/>
	</g>
	<g id="brace-l_2_">
		
			<linearGradient id="brace-right_1_" gradientUnits="userSpaceOnUse" x1="-26.6421" y1="385.3936" x2="-26.6421" y2="297.5498" gradientTransform="matrix(2.3906 0 0 -2.3906 134.1921 1708.0696)">
			<stop  offset="0" style="stop-color:#C5372F"/>
			<stop  offset="1" style="stop-color:#990000"/>
		</linearGradient>
		
			<path id="brace-right_2_" vector-effect="non-scaling-stroke" fill="url(#brace-right_1_)" stroke="#8B2721" stroke-linecap="round" stroke-linejoin="round" stroke-miterlimit="10" d="
			M98.835,813.305c-2.797,0-4.995,0.56-6.632,1.615c-1.618,1.057-2.916,2.413-3.815,3.987c-0.958,1.596-1.559,3.409-1.778,5.362
			c-0.24,1.955-0.339,3.848-0.339,5.664V864.6c0,5.642-0.958,10.166-2.776,13.576c-1.818,3.43-3.975,6.1-6.432,7.993
			c-2.496,1.874-5.073,3.25-7.811,3.985c-2.716,0.759-4.914,1.217-6.671,1.355v0.697c1.758,0.141,3.955,0.678,6.671,1.495
			c2.737,0.838,5.314,2.233,7.811,4.106c2.456,1.895,4.614,4.426,6.432,7.517c1.817,3.13,2.776,7.136,2.776,11.96v36.501
			c0,1.651,0.101,3.466,0.339,5.463c0.22,1.931,0.818,3.748,1.778,5.362c0.899,1.555,2.197,2.908,3.815,4.006
			c1.637,1.021,3.835,1.58,6.632,1.58H110.5v26.552H81.716c-2.716,0-5.792-0.676-9.208-1.954c-3.396-1.337-6.592-3.251-9.548-5.74
			c-2.937-2.574-5.493-5.762-7.531-9.688c-2.077-3.929-3.097-8.496-3.097-13.701v-44.692c0-3.51-0.798-6.479-2.357-8.933
			c-1.558-2.449-3.415-4.424-5.573-5.879c-2.198-1.437-5.154-2.531-7.65-3.209c-2.497-0.679-4.534-1.058-6.252-1.058V881.82
			c1.718,0,3.755-0.338,6.252-1.016c2.497-0.68,5.453-1.813,7.65-3.431c2.158-1.615,4.015-3.769,5.573-6.459
			c1.559-2.671,2.357-5.938,2.357-9.788v-43.299c0-5.225,1.019-9.77,3.097-13.695c2.038-3.927,4.595-7.137,7.531-9.669
			c2.956-2.511,6.151-4.444,9.548-5.761c3.416-1.276,6.492-1.954,9.208-1.954H110.5v26.553L98.835,813.305L98.835,813.305z"/>
		
			<path id="brace-right--stroke_2_" fill="none" stroke="#8B2721" stroke-width="2" stroke-linecap="round" stroke-linejoin="round" stroke-miterlimit="10" d="
			M98.835,813.305c-2.797,0-4.995,0.56-6.632,1.615c-1.618,1.057-2.916,2.413-3.815,3.987c-0.958,1.596-1.559,3.409-1.778,5.362
			c-0.24,1.955-0.339,3.848-0.339,5.664V864.6c0,5.642-0.958,10.166-2.776,13.576c-1.818,3.43-3.975,6.1-6.432,7.993
			c-2.496,1.874-5.073,3.25-7.811,3.985c-2.716,0.759-4.914,1.217-6.671,1.355v0.697c1.758,0.141,3.955,0.678,6.671,1.495
			c2.737,0.838,5.314,2.233,7.811,4.106c2.456,1.895,4.614,4.426,6.432,7.517c1.817,3.13,2.776,7.136,2.776,11.96v36.501
			c0,1.651,0.101,3.466,0.339,5.463c0.22,1.931,0.818,3.748,1.778,5.362c0.899,1.555,2.197,2.908,3.815,4.006
			c1.637,1.021,3.835,1.58,6.632,1.58H110.5v26.552H81.716c-2.716,0-5.792-0.676-9.208-1.954c-3.396-1.337-6.592-3.251-9.548-5.74
			c-2.937-2.574-5.493-5.762-7.531-9.688c-2.077-3.929-3.097-8.496-3.097-13.701v-44.692c0-3.51-0.798-6.479-2.357-8.933
			c-1.558-2.449-3.415-4.424-5.573-5.879c-2.198-1.437-5.154-2.531-7.65-3.209c-2.497-0.679-4.534-1.058-6.252-1.058V881.82
			c1.718,0,3.755-0.338,6.252-1.016c2.497-0.68,5.453-1.813,7.65-3.431c2.158-1.615,4.015-3.769,5.573-6.459
			c1.559-2.671,2.357-5.938,2.357-9.788v-43.299c0-5.225,1.019-9.77,3.097-13.695c2.038-3.927,4.595-7.137,7.531-9.669
			c2.956-2.511,6.151-4.444,9.548-5.761c3.416-1.276,6.492-1.954,9.208-1.954H110.5v26.553L98.835,813.305L98.835,813.305z"/>
	</g>
</g>
</svg>
